<mxfile host="app.diagrams.net" modified="2024-05-04T01:57:52.119Z" agent="Mozilla/5.0 (Macintosh; Intel Mac OS X 10_15_7) AppleWebKit/537.36 (KHTML, like Gecko) Chrome/124.0.0.0 Safari/537.36" version="24.3.1" etag="RLK10Nex9zpjdLOK7Wv2" type="github">
  <diagram name="第 1 页" id="RgLqZFE3epB5z53ZG0VU">
    <mxGraphModel>
      <root>
        <mxCell id="0" />
        <mxCell id="1" parent="0" />
      </root>
    </mxGraphModel>
  </diagram>
</mxfile>
